<svg width="646" height="120" viewBox="0 0 646 120" fill="none" xmlns="http://www.w3.org/2000/svg">
<g clip-path="url(#clip0_3_2)">
<path d="M568.128 0.0485231C567.005 0.0482179 565.927 0.494082 565.132 1.28813C564.337 2.08217 563.889 3.15942 563.888 4.28313V33.9576H642.289L606.586 0.0577138L568.128 0.0485231ZM645.161 42.9346C645.162 42.3785 645.052 41.8278 644.84 41.314C644.627 40.8003 644.314 40.3337 643.921 39.9409C643.527 39.5481 643.06 39.2369 642.546 39.0251C642.031 38.8134 641.48 38.7052 640.924 38.7069H611.252V117.106L645.147 81.393L645.161 42.9346ZM602.261 119.951C603.383 119.948 604.458 119.501 605.25 118.706C606.042 117.912 606.487 116.836 606.487 115.715V86.0435H528.089L563.787 119.943L602.261 119.951ZM525.225 77.07C525.225 77.6262 525.334 78.177 525.547 78.691C525.76 79.205 526.072 79.672 526.465 80.0654C526.858 80.4589 527.325 80.771 527.839 80.984C528.353 81.197 528.903 81.3067 529.46 81.3069H559.134V2.90223L525.23 38.6058L525.225 77.07Z" fill="#D9D9D9"/>
<path d="M165.868 14.355V50.5594H115.422V14.355L97.056 14.3481V105.636H115.422V66.418H165.868V105.636H184.268V14.355H165.868ZM410.276 14.355V105.62L490.883 105.615L480.669 89.5544H428.707V66.418H479.022V50.9409H428.707V30.0458H480.584L490.591 14.355H410.276ZM28.7703 14.3435C9.65482 14.3435 0 25.9537 0 42.8611V76.9413C0 96.5014 12.435 105.638 28.6715 105.638L86.3017 105.627L75.6256 88.9444H32.2283C23.0135 88.9444 18.9995 85.6139 18.9995 75.295V44.3799C18.9995 34.4034 22.3759 30.5111 32.4742 30.5111H76.0783L86.3351 14.3447L28.7703 14.3435ZM329.655 14.3171C318.611 14.3171 307.309 20.947 307.309 38.0118V42.3958C307.309 60.1741 318.196 66.9683 329.078 67.0177H367.306C371.275 67.0177 374.502 67.6748 374.502 74.3886L374.498 82.1478C374.399 88.1632 371.383 89.5544 367.169 89.5544H316.884L306.582 105.614H368.346C383.248 105.614 393.359 98.2074 393.359 81.0829V74.7918C393.359 58.2394 383.966 50.4285 369.396 50.4285H332.897C328.848 50.4285 326.032 49.3175 326.032 43.3241L326.027 37.0147C326.027 31.9104 327.966 30.0458 332.68 30.0458L380.567 30.0274L390.579 14.2999L329.655 14.3171ZM237.652 14.3688L194.365 105.627H214.827L223.257 86.78H270.291L278.695 105.627H299.239L255.853 14.3676L237.652 14.3688ZM246.723 33.3108L263.357 71.2465H230.194L246.723 33.3108Z" fill="#D9D9D9"/>
</g>
<defs>
<clipPath id="clip0_3_2">
<rect width="645.161" height="120" fill="white"/>
</clipPath>
</defs>
</svg>
